<?xml version="1.0" standalone="no"?>
<!DOCTYPE svg PUBLIC "-//W3C//DTD SVG 20010904//EN"
 "http://www.w3.org/TR/2001/REC-SVG-20010904/DTD/svg10.dtd">
<svg version="1.0" xmlns="http://www.w3.org/2000/svg"
 width="1080.000000pt" height="1080.000000pt" viewBox="0 0 1080.000000 1080.000000"
 preserveAspectRatio="xMidYMid meet">
<metadata>
Created by potrace 1.14, written by Peter Selinger 2001-2017
</metadata>
<g transform="translate(0.000000,1080.000000) scale(0.100000,-0.100000)"
fill="#000000" stroke="none">
<path d="M0 5400 l0 -5400 5400 0 5400 0 0 5400 0 5400 -5400 0 -5400 0 0
-5400z m6940 3396 l0 -225 -42 -5 c-24 -2 -96 -10 -160 -16 -236 -23 -431 -85
-482 -153 -44 -59 -68 -164 -86 -372 -14 -164 -14 -5065 0 -5230 23 -269 57
-375 137 -425 94 -60 276 -101 523 -118 l105 -7 3 -227 2 -228 -1535 0 -1535
0 0 230 0 230 58 0 c88 0 305 28 394 51 100 25 187 68 221 109 51 60 81 216
97 495 13 239 13 4745 0 4996 -11 214 -38 388 -70 454 -50 104 -214 168 -500
195 -63 6 -134 14 -157 16 l-43 5 0 225 0 224 1535 0 1535 0 0 -224z"/>
</g>
</svg>
